<svg width="88" height="80" viewBox="0 0 88 80" fill="none" xmlns="http://www.w3.org/2000/svg">
<path d="M56.3 6.69995C55.9 8.89995 55.6 10.3 54.9 11.3C51.8 8.99995 48 7.69995 43.9 7.69995C33.6 7.69995 25.2 16.1 25.2 26.4C25.2 32.8 28.4 38.3999 33.2 41.7999C32.2 42.2999 31.7 42.8999 31.7 43.5999V45.5C30.4 46.1 29.7 46.8 29.7 47.7V51.0999C29.7 53.6999 36.9 55.0999 44 55.0999C51.1 55.0999 58.3 53.6999 58.3 51.0999V47.7C58.3 46.9 57.6 46.1 56.3 45.5V43.5999C56.3 42.8999 55.7 42.2999 54.7 41.7999C59.5 38.3999 62.6 32.8 62.6 26.5C62.6 22.1 61.1 18.1 58.5 14.9C59.4 14.2 60.8 13.9 63 13.5C57.9 12.5 57.2 11.8 56.3 6.69995ZM31.2 51.4C31 51.2 30.9 51 30.9 50.9V49.2C31 49.3 31.1 49.3 31.2 49.4V51.4ZM32.3 52C32.1 51.9 31.9 51.8 31.7 51.7V49.5999C31.9 49.6999 32.1 49.7999 32.3 49.7999V52ZM32.8 44.9C32.9 45 33.1 45.0999 33.2 45.0999V46.9C32.9 46.7 32.8 46.5 32.8 46.4V44.9ZM33.7 52.5C33.4 52.4 33 52.3 32.8 52.2V50.0999C33.1 50.1999 33.4 50.3 33.7 50.4V52.5ZM33.7 47.2V45.4C33.9 45.5 34.1 45.4999 34.3 45.5999V47.4C34 47.4 33.8 47.3 33.7 47.2ZM53.8 52.5999C51.6 53.1999 48.3 53.5999 44 53.5999C39.7 53.5999 36.4 53.0999 34.2 52.5999V50.5C36.9 51.2 40.5 51.5 44 51.5C47.6 51.5 51.1 51.2 53.8 50.5V52.5999ZM34.7 47.5999V45.7999C35 45.8999 35.3 45.9999 35.6 46.0999V48C35.3 47.8 35 47.6999 34.7 47.5999ZM36.1 48V46.0999C38.3 46.5999 41.1 46.7999 44 46.7999C46.8 46.7999 49.7 46.5 51.9 46V48C50 48.4 47.4 48.7999 44 48.7999C40.6 48.7999 38 48.5 36.1 48ZM52.4 47.9V46C52.7 45.9 53 45.8 53.3 45.7V47.5C53.1 47.7 52.8 47.8 52.4 47.9ZM56.8 49.4C56.9 49.3 57 49.3 57.1 49.2V50.9C57.1 51 57 51.2 56.8 51.4V49.4ZM55.8 49.9C56 49.8 56.2 49.7 56.4 49.7V51.7999C56.2 51.8999 56.1 51.9999 55.8 52.0999V49.9ZM54.9 45.0999C55 44.9999 55.1 45 55.2 44.9V46.2999C55.2 46.3999 55.1 46.5999 54.9 46.7999V45.0999ZM55.3 50.0999V52.2C55 52.3 54.7 52.4 54.4 52.5V50.4C54.7 50.3 55 50.1999 55.3 50.0999ZM53.9 47.4V45.5999C54.1 45.4999 54.3 45.5 54.5 45.4V47.2C54.3 47.2 54.1 47.3 53.9 47.4ZM43.9 43.0999C34.7 43.0999 27.2 35.6 27.2 26.4C27.2 17.2 34.7 9.69995 43.9 9.69995C47.4 9.69995 50.6 10.8 53.2 12.6C52.3 13 51.2 13.2 49.6 13.5C54.7 14.4 55.4 15.1 56.3 20.2C56.6 18.5 56.8 17.4 57.2 16.5C59.3 19.3 60.6 22.8 60.6 26.5C60.6 35.6 53.1 43.0999 43.9 43.0999Z" fill="white"/>
<path d="M52.2 18.2C50.6 19.4 50.2 19.3999 48.6 18.2999C49.8 19.8999 49.8 20.3 48.7 21.9C50.3 20.6999 50.7 20.6999 52.3 21.7999C51.1 20.1999 51.1 19.8 52.2 18.2Z" fill="white"/>
<path d="M69.6 18.2001C67.7 18.5001 67.3 18.3001 66.4 16.6001C66.7 18.5001 66.5 18.9001 64.8 19.8001C66.7 19.5001 67.1 19.7001 68 21.4001C67.7 19.5001 67.8 19.2001 69.6 18.2001Z" fill="white"/>
<path d="M52.8 5.69995C52.8 3.69995 53 3.39995 54.8 2.69995C52.8 2.69995 52.5 2.49995 51.8 0.699951C51.8 2.69995 51.6 2.99995 49.8 3.69995C51.8 3.59995 52.1 3.79995 52.8 5.69995Z" fill="white"/>
<path d="M55.5 24.4001C55.9971 24.4001 56.4 23.9972 56.4 23.5001C56.4 23.003 55.9971 22.6001 55.5 22.6001C55.003 22.6001 54.6 23.003 54.6 23.5001C54.6 23.9972 55.003 24.4001 55.5 24.4001Z" fill="white"/>
<path d="M66.2 12.1999C66.697 12.1999 67.1 11.797 67.1 11.2999C67.1 10.8028 66.697 10.3999 66.2 10.3999C65.7029 10.3999 65.3 10.8028 65.3 11.2999C65.3 11.797 65.7029 12.1999 66.2 12.1999Z" fill="white"/>
<path d="M56.5 27.3C56.7761 27.3 57 27.0762 57 26.8C57 26.5239 56.7761 26.3 56.5 26.3C56.2239 26.3 56 26.5239 56 26.8C56 27.0762 56.2239 27.3 56.5 27.3Z" fill="white"/>
<path d="M50.6 32.8999C50.8761 32.8999 51.1 32.676 51.1 32.3999C51.1 32.1238 50.8761 31.8999 50.6 31.8999C50.3239 31.8999 50.1 32.1238 50.1 32.3999C50.1 32.676 50.3239 32.8999 50.6 32.8999Z" fill="white"/>
<path d="M42.4 16.3C42.6761 16.3 42.9 16.0762 42.9 15.8C42.9 15.5239 42.6761 15.3 42.4 15.3C42.1239 15.3 41.9 15.5239 41.9 15.8C41.9 16.0762 42.1239 16.3 42.4 16.3Z" fill="white"/>
<path d="M66.7 27.3C66.9762 27.3 67.2 27.0762 67.2 26.8C67.2 26.5239 66.9762 26.3 66.7 26.3C66.4239 26.3 66.2 26.5239 66.2 26.8C66.2 27.0762 66.4239 27.3 66.7 27.3Z" fill="white"/>
<path d="M52.7 61.5C52.6 61.1 52.1 60.8 51.5 60.8H36.6C36 60.8 35.4 61.1 35.4 61.5L32.2 78.6C32.1 79 32.8 79.3 33.6 79.3H54.4C55.3 79.3 55.9 79 55.8 78.6L52.7 61.5ZM49 68.9L46.8 70.1C46.7 70.1 46.7 70.2 46.7 70.2L47.3 71.9C47.3 72 47.1 72.1 47 72L44.1 71.2C44 71.2 44 71.2 43.9 71.2L41 72C40.8 72 40.6 72 40.7 71.9L41.3 70.2C41.3 70.2 41.3 70.1 41.2 70.1L39 68.9C38.9 68.8 39 68.7 39.1 68.7L42.2 68.5C42.3 68.5 42.3 68.5 42.4 68.4L43.8 66.9C43.9 66.8 44.1 66.8 44.2 66.9L45.6 68.4C45.6 68.4 45.7 68.5 45.8 68.5L48.9 68.7C49.1 68.7 49.2 68.9 49 68.9Z" fill="white"/>
<path d="M87.4 78.6L76.4 61.5C76.2 61.1 75.5 60.8 74.8 60.8H59.9C59.3 60.8 58.9 61.1 59 61.5L63.7 78.6C63.8 79 64.6 79.3 65.5 79.3H86.3C87.2 79.3 87.7 79 87.4 78.6ZM77.2 69.6L74.8 70.1L76.8 71.5C77 71.6 76.8 71.7 76.6 71.7L73.4 71L73 72.5C73 72.6 72.7 72.6 72.6 72.5L70.9 71L68.4 71.6C68.2 71.7 67.9 71.5 68 71.4L68.7 70L65.8 69.5C65.6 69.5 65.5 69.3 65.7 69.3L68.2 68.8L66.4 67.4C66.3 67.3 66.4 67.2 66.6 67.2L69.4 67.8L69.8 66.4C69.8 66.3 70.1 66.3 70.2 66.4L71.9 67.8L74.1 67.2C74.3 67.1 74.5 67.3 74.5 67.4L74 68.8L77 69.4C77.3 69.4 77.4 69.5 77.2 69.6Z" fill="white"/>
<path d="M28 60.8H13.1C12.5 60.8 11.8 61.1 11.5 61.5L0.499997 78.6C0.299997 79 0.699997 79.3 1.6 79.3H22.4C23.3 79.3 24 79 24.2 78.6L29 61.5C29.1 61.1 28.7 60.8 28 60.8ZM21 70.7C19.2 71.9 15.9 72.5 13.5 71.9C11.6 71.4 11 70.2 12 69C13.2 67.6 15.8 66.7 18.1 66.7C18.3 66.7 18.3 66.8 18.1 66.9C17 67.3 16 67.8 15.6 68.6C15.1 69.4 15.6 70.2 16.7 70.6C17.9 71 19.4 71 20.7 70.6C21 70.5 21.1 70.6 21 70.7Z" fill="white"/>
</svg>
