<svg width="411" height="300" viewBox="0 0 411 300" fill="none" xmlns="http://www.w3.org/2000/svg">
<path d="M94.8331 98.0909C66.1646 98.0909 42.9231 121.332 42.9231 150C42.9231 178.67 66.1646 201.909 94.8331 201.909C123.505 201.909 146.744 178.67 146.744 150C146.744 121.334 123.505 98.0934 94.8325 98.0934L94.8331 98.0909ZM118.639 172.959C118.417 173.322 118.126 173.638 117.783 173.888C117.439 174.139 117.049 174.319 116.636 174.418C116.222 174.518 115.793 174.535 115.373 174.469C114.953 174.402 114.551 174.254 114.188 174.032C102 166.587 86.657 164.901 68.5877 169.029C67.751 169.219 66.873 169.07 66.1467 168.613C65.4203 168.156 64.905 167.43 64.7141 166.593C64.619 166.179 64.6066 165.75 64.6774 165.331C64.7483 164.912 64.9012 164.511 65.1272 164.151C65.3533 163.791 65.6481 163.48 65.9948 163.234C66.3415 162.988 66.7333 162.813 67.1477 162.719C86.9217 158.201 103.883 160.146 117.566 168.508C119.091 169.444 119.575 171.434 118.639 172.959ZM124.992 158.825C123.821 160.729 121.329 161.33 119.426 160.159C105.473 151.582 84.2029 149.098 67.6988 154.108C65.5584 154.755 63.2977 153.548 62.6481 151.412C62.3381 150.385 62.4481 149.276 62.9541 148.33C63.46 147.384 64.3206 146.677 65.347 146.364C84.1992 140.644 107.636 143.415 123.66 153.261C125.563 154.433 126.164 156.925 124.992 158.825V158.825ZM125.538 144.107C108.808 134.169 81.2046 133.256 65.2311 138.104C62.666 138.882 59.9535 137.434 59.1762 134.869C58.8024 133.636 58.9334 132.306 59.5403 131.17C60.1472 130.034 61.1803 129.186 62.4125 128.812C80.749 123.245 111.231 124.321 130.493 135.756C131.042 136.08 131.522 136.51 131.904 137.021C132.287 137.531 132.565 138.112 132.723 138.73C132.881 139.348 132.915 139.991 132.824 140.622C132.733 141.253 132.518 141.861 132.192 142.409C130.828 144.716 127.84 145.476 125.54 144.107H125.538ZM184.153 146.011C175.19 143.873 173.597 142.373 173.597 139.221C173.597 136.243 176.398 134.239 180.57 134.239C184.612 134.239 188.616 135.761 192.819 138.894C192.943 138.989 193.104 139.027 193.259 139.002C193.337 138.991 193.412 138.964 193.479 138.923C193.546 138.881 193.604 138.827 193.65 138.763L198.026 132.594C198.112 132.471 198.149 132.321 198.128 132.172C198.107 132.024 198.031 131.889 197.914 131.795C192.912 127.783 187.283 125.832 180.7 125.832C171.024 125.832 164.261 131.64 164.261 139.949C164.261 148.86 170.094 152.015 180.174 154.45C188.746 156.426 190.197 158.081 190.197 161.039C190.197 164.318 187.271 166.358 182.56 166.358C177.328 166.358 173.057 164.591 168.284 160.463C168.165 160.362 168.012 160.311 167.857 160.32C167.695 160.332 167.553 160.407 167.454 160.525L162.544 166.364C162.34 166.612 162.365 166.971 162.6 167.182C168.154 172.141 174.985 174.757 182.362 174.757C192.788 174.757 199.526 169.06 199.526 160.239C199.545 152.797 195.088 148.674 184.172 146.019L184.153 146.011ZM223.118 137.171C218.599 137.171 214.893 138.952 211.83 142.6V138.494C211.831 138.338 211.77 138.189 211.661 138.079C211.552 137.969 211.403 137.906 211.248 137.905H203.22C202.898 137.905 202.638 138.169 202.638 138.494V184.117C202.638 184.439 202.898 184.706 203.22 184.706H211.248C211.57 184.706 211.83 184.439 211.83 184.117V169.717C214.893 173.145 218.599 174.825 223.118 174.825C231.518 174.825 240.022 168.36 240.022 156C240.035 143.638 231.53 137.171 223.125 137.171L223.118 137.171ZM230.687 156C230.687 162.291 226.813 166.686 221.259 166.686C215.773 166.686 211.632 162.093 211.632 156C211.632 149.907 215.773 145.315 221.259 145.315C226.72 145.314 230.687 149.807 230.687 155.999V156ZM261.811 137.171C250.994 137.171 242.52 145.5 242.52 156.135C242.52 166.655 250.938 174.893 261.681 174.893C272.535 174.893 281.033 166.593 281.033 156C281.033 145.443 272.59 137.173 261.811 137.173V137.171ZM261.811 166.748C256.058 166.748 251.719 162.124 251.719 155.997C251.719 149.842 255.91 145.376 261.681 145.376C267.47 145.376 271.834 149.998 271.834 156.131C271.834 162.285 267.619 166.748 261.811 166.748ZM304.13 137.905H295.296V128.876C295.297 128.799 295.282 128.723 295.253 128.652C295.224 128.581 295.181 128.516 295.127 128.462C295.073 128.407 295.008 128.364 294.937 128.334C294.867 128.304 294.79 128.289 294.714 128.289H286.686C286.364 128.289 286.097 128.553 286.097 128.876V137.905H282.242C281.919 137.905 281.659 138.169 281.659 138.494V145.391C281.659 145.715 281.919 145.979 282.242 145.979H286.097V163.828C286.097 171.038 289.686 174.695 296.772 174.695C299.648 174.695 302.034 174.1 304.284 172.823C304.47 172.724 304.582 172.525 304.582 172.314V165.744C304.582 165.545 304.477 165.353 304.303 165.248C304.219 165.194 304.121 165.163 304.021 165.159C303.921 165.155 303.822 165.177 303.733 165.223C302.189 165.998 300.695 166.358 299.022 166.358C296.449 166.358 295.296 165.186 295.296 162.57V145.982H304.13C304.452 145.982 304.712 145.718 304.712 145.394V138.497C304.715 138.42 304.702 138.344 304.674 138.272C304.646 138.2 304.604 138.135 304.55 138.08C304.496 138.025 304.432 137.981 304.36 137.952C304.289 137.923 304.213 137.908 304.136 137.909L304.13 137.905ZM334.9 137.941V136.832C334.9 133.569 336.152 132.115 338.954 132.115C340.628 132.115 341.973 132.447 343.479 132.949C343.665 133.007 343.857 132.978 344.006 132.867C344.081 132.813 344.143 132.741 344.185 132.658C344.227 132.575 344.248 132.483 344.248 132.39V125.627C344.249 125.501 344.209 125.377 344.134 125.276C344.06 125.174 343.953 125.099 343.832 125.063C342.246 124.59 340.212 124.105 337.163 124.105C329.755 124.105 325.831 128.279 325.831 136.172V137.871H321.976C321.653 137.871 321.387 138.135 321.387 138.458V145.391C321.387 145.715 321.653 145.979 321.976 145.979H325.831V173.505C325.831 173.833 326.098 174.094 326.42 174.094H334.441C334.77 174.094 335.03 173.833 335.03 173.505V145.981H342.524L354.004 173.505C352.703 176.393 351.42 176.97 349.672 176.97C348.258 176.97 346.764 176.548 345.246 175.711C345.102 175.639 344.936 175.623 344.781 175.668C344.626 175.724 344.496 175.835 344.434 175.984L341.712 181.954C341.582 182.239 341.694 182.567 341.967 182.716C344.806 184.253 347.366 184.91 350.533 184.91C356.459 184.91 359.738 182.146 362.621 174.72L376.543 138.744C376.579 138.655 376.593 138.558 376.582 138.463C376.571 138.368 376.536 138.276 376.481 138.198C376.429 138.119 376.358 138.055 376.275 138.01C376.191 137.966 376.098 137.942 376.004 137.943H367.648C367.394 137.943 367.171 138.102 367.09 138.337L358.53 162.781L349.157 138.321C349.115 138.21 349.041 138.114 348.943 138.047C348.846 137.979 348.73 137.943 348.612 137.943H334.9V137.941ZM317.06 137.905H309.033C308.71 137.905 308.444 138.169 308.444 138.494V173.505C308.444 173.833 308.71 174.094 309.033 174.094H317.06C317.382 174.094 317.649 173.833 317.649 173.505V138.496C317.649 138.419 317.634 138.342 317.604 138.271C317.575 138.199 317.532 138.134 317.477 138.08C317.422 138.025 317.357 137.982 317.286 137.952C317.214 137.923 317.137 137.908 317.06 137.908V137.905ZM313.093 121.963C309.913 121.963 307.334 124.537 307.334 127.716C307.334 128.472 307.483 129.221 307.773 129.92C308.062 130.618 308.486 131.253 309.021 131.788C309.556 132.322 310.191 132.746 310.889 133.036C311.588 133.325 312.337 133.474 313.093 133.474C316.273 133.474 318.845 130.897 318.845 127.716C318.845 124.537 316.267 121.963 313.093 121.963ZM383.399 149.163C380.225 149.163 377.752 146.612 377.752 143.515C377.752 140.417 380.256 137.837 383.43 137.837C386.604 137.837 389.077 140.387 389.077 143.482C389.077 146.58 386.573 149.163 383.399 149.163ZM383.43 138.399C380.535 138.399 378.347 140.699 378.347 143.515C378.347 146.329 380.523 148.598 383.399 148.598C386.294 148.598 388.482 146.3 388.482 143.482C388.482 140.668 386.306 138.399 383.43 138.399ZM384.682 144.063L386.281 146.3H384.93L383.492 144.248H382.258V146.3H381.13V140.371H383.771C385.153 140.371 386.058 141.076 386.058 142.262C386.064 143.234 385.5 143.828 384.688 144.063H384.682ZM383.727 141.388H382.258V143.264H383.727C384.459 143.264 384.899 142.905 384.899 142.325C384.899 141.715 384.459 141.388 383.727 141.388Z" fill="#1ED760"/>
</svg>
